<svg width="55" height="40" viewBox="0 0 55 40" fill="none" xmlns="http://www.w3.org/2000/svg">
<path fill-rule="evenodd" clip-rule="evenodd" d="M52.2222 16.6667C52.2222 16.0741 52.5925 15.4074 53.5555 15.4074C54.3703 15.4074 54.8148 16 54.8888 16.6667C54.8888 17.3333 54.3703 17.9259 53.5555 17.9259C52.5925 17.9259 52.2222 17.2593 52.2222 16.6667ZM54.5185 16.6667C54.5185 16.0741 54.1481 15.7037 53.5555 15.7037C52.9629 15.7037 52.5185 16.0741 52.5185 16.6667C52.5185 17.1852 52.9629 17.6296 53.5555 17.6296C54.1481 17.6296 54.5185 17.2593 54.5185 16.6667ZM53.2592 16.8148H53.4814L53.7777 17.3333H54.1481L53.7777 16.7407C53.9999 16.7407 54.1481 16.5926 54.1481 16.3704C54.1481 16.0741 53.9999 15.9259 53.7036 15.9259H52.8888V17.3333H53.2592V16.8148ZM53.8518 16.3704C53.8518 16.2222 53.7036 16.2222 53.5555 16.2222V16.1482H53.2592V16.5185H53.6296C53.7777 16.5185 53.8518 16.5185 53.8518 16.3704Z" fill="black"/>
<path d="M11.6296 18.2963H13.1852V25.3333H11.7037L11.6296 18.2963Z" fill="black"/>
<path d="M11.6296 15.4815H13.1852V17.7037H11.6296V15.4815Z" fill="black"/>
<path d="M46.7407 15.4074H48.2963V25.2593H46.8148L46.7407 15.4074Z" fill="black"/>
<path d="M49.3333 15.4074H50.8888V25.2593H49.4073L49.3333 15.4074Z" fill="black"/>
<path fill-rule="evenodd" clip-rule="evenodd" d="M0 18.2963H8.44444C9.85185 18.2963 10.2963 19.4074 10.2222 20C10.2222 20.6667 9.92593 21.2593 9.55556 21.4074C10.2222 21.7037 10.7407 22.5185 10.6667 23.2593C10.5926 25.1111 8.74074 25.2593 8 25.2593H0V18.2963ZM7.85185 24.2222C8.44444 24.2222 8.96296 23.7778 8.96296 23.1852C8.96296 22.5926 8.44444 22.0741 7.85185 22.0741H1.48148V24.1481L7.85185 24.2222ZM8.59259 20.2222C8.59259 20.7407 8.14815 21.1111 7.62963 21.1111L1.48148 21.037V19.3333H7.62963C8.14815 19.3333 8.59259 19.7037 8.59259 20.2222Z" fill="black"/>
<path d="M38.5927 18.2963C38.0001 18.2963 36.7408 18.5926 36.6667 19.7778C36.6667 20.8148 37.2593 21.3333 37.5556 21.4074C37.1112 21.6296 36.6667 22.4445 36.6667 23.1111C36.6667 23.8519 36.963 25.2593 39.3334 25.2593H45.8519V24.2222H39.5556C38.963 24.2222 38.4445 23.7778 38.4445 23.1852C38.4445 22.5926 38.963 22.0741 39.5556 22.0741H45.5556V21.037H39.4075C38.889 21.037 38.4445 20.6667 38.4445 20.1482C38.4445 19.6296 38.889 19.2593 39.4075 19.2593H45.8519V18.2222L38.5927 18.2963Z" fill="black"/>
<path d="M33.9258 20.4445H35.4814C35.4814 18.7407 34.6666 18.2222 32.5184 18.2222H28.2962C27.3332 18.2222 25.7036 18.6667 25.7036 20.0741C25.7036 21.4815 26.2962 22.0741 27.9999 22.0741H33.0369C33.6295 22.0741 34.2221 22.4445 34.2221 23.1111C34.2221 23.7778 33.8518 24.2222 32.8147 24.2222H28.8147C28.2962 24.2222 27.2592 24.1482 27.2592 23.1111H25.7036C25.7036 24 25.8518 25.3333 28.2221 25.3333H33.1851C34.1481 25.3333 35.7777 24.8889 35.7777 23.1111C35.7777 21.3333 34.2962 21.1111 33.4073 21.1111H28.3703C27.5555 21.1111 27.2592 20.5926 27.2592 20.2222C27.2592 19.8519 27.5555 19.3333 28.3703 19.3333H32.7407C33.4814 19.3333 33.9258 19.6296 33.9258 20.4445Z" fill="black"/>
<path d="M23.037 20.4445H24.5926C24.5926 18.7407 23.7778 18.2222 21.6296 18.2222H17.4074C16.4444 18.2222 14.8148 18.6667 14.8148 20.0741C14.8148 21.4815 15.4074 22.0741 17.1111 22.0741H22.1481C22.7407 22.0741 23.3333 22.4445 23.3333 23.1111C23.3333 23.7778 22.9629 24.2222 21.9259 24.2222H17.9259C17.4074 24.2222 16.3704 24.1482 16.3704 23.1111H14.7407C14.7407 24 14.8889 25.3333 17.2592 25.3333H22.2222C23.1852 25.3333 24.8148 24.8889 24.8148 23.1111C24.8148 21.3333 23.3333 21.1111 22.4444 21.1111H17.4074C16.5926 21.1111 16.2963 20.5926 16.2963 20.2222C16.2963 19.8519 16.5926 19.3333 17.4074 19.3333H21.7778C22.5926 19.3333 23.037 19.6296 23.037 20.4445Z" fill="black"/>
<path fill-rule="evenodd" clip-rule="evenodd" d="M46.3704 37.8519C48.7408 37.8519 47.7779 35.7037 47.3334 34.963C46.6667 33.9259 43.4075 28.1481 43.4075 28.1481H8.00008C8.00008 28.1481 4.74082 33.8519 4.07415 34.963C3.62971 35.7037 2.74082 37.7778 5.11119 37.7778L46.3704 37.8519Z" fill="#EA2227"/>
<path fill-rule="evenodd" clip-rule="evenodd" d="M14.7153 15.5421H36.1968C36.1968 15.5421 30.7894 5.91245 29.5301 3.76431C28.345 1.76431 27.6783 0.801343 25.382 0.801343C23.0857 0.727269 22.4931 1.69023 21.2339 3.76431C20.1227 5.76431 14.7153 15.5421 14.7153 15.5421Z" fill="#EA2227"/>
</svg>
