<svg width="62" height="30" viewBox="0 0 62 30" fill="none" xmlns="http://www.w3.org/2000/svg">
<path fill-rule="evenodd" clip-rule="evenodd" d="M17.8163 18.1636C17.8709 18.3818 17.98 18.6545 18.089 18.8727C18.3072 19.5818 18.4163 20.2364 18.2527 20.8909C18.0345 22.3091 17.1072 23.5091 15.7436 24.0545C15.3072 24.2727 14.7618 24.3818 14.2163 24.3818C14.1345 24.3818 14.0527 24.3682 13.9709 24.3545L13.9709 24.3545C13.889 24.3409 13.8072 24.3273 13.7254 24.3273C13.1254 24.2182 12.4709 24.0545 11.8163 23.6727C11.0527 23.2364 10.2345 22.6364 9.41631 21.7091C8.54359 22.5818 7.77995 23.2364 7.01631 23.6727C6.41631 24.0545 5.76177 24.2727 5.10722 24.3273C4.94359 24.3818 4.77995 24.3818 4.61631 24.3818C4.07086 24.3818 3.5254 24.2727 3.14359 24.1636C1.77995 23.6182 0.852676 22.4182 0.634495 21C0.525404 20.2909 0.579949 19.6364 0.852676 18.9273C0.907222 18.6545 1.01631 18.4364 1.1254 18.2182C1.18995 18.0676 1.25449 17.9339 1.31569 17.8072L1.3157 17.8072C1.40965 17.6127 1.49571 17.4345 1.56177 17.2364V17.1818C2.87086 14.3455 4.28904 11.4545 5.81631 8.56363L5.87086 8.45454C5.94213 8.27636 6.03668 8.09819 6.1393 7.9048L6.13931 7.90479C6.19377 7.80217 6.25049 7.69527 6.30722 7.58181C6.36834 7.49014 6.42945 7.39419 6.49177 7.29635L6.49177 7.29634C6.65192 7.04491 6.81998 6.78105 7.01631 6.54545C7.67086 5.83636 8.48904 5.39999 9.47086 5.39999C10.4527 5.39999 11.3254 5.83636 11.9254 6.59999C12.1523 6.82692 12.3006 7.08006 12.4429 7.32307C12.5058 7.43053 12.5676 7.53601 12.6345 7.63636C12.7436 7.90909 12.9072 8.23636 13.0709 8.50909L13.1254 8.61818C14.6527 11.4545 16.0709 14.3455 17.3799 17.1818C17.489 17.5091 17.6527 17.8364 17.8163 18.1636ZM32.8709 10.1454C32.8709 10.8545 32.3254 11.4 31.6163 11.4C30.9072 11.4 30.3618 10.8545 30.3618 10.1454C30.3618 9.43636 30.9072 8.8909 31.6163 8.8909C32.3254 8.94545 32.8709 9.4909 32.8709 10.1454ZM27.7436 12.6545V12.9818C27.7436 12.9818 27.1436 12.2182 25.889 12.2182C23.8163 12.2182 22.1799 13.8 22.1799 15.9818C22.1799 18.1636 23.8163 19.7454 25.889 19.7454C27.1981 19.7454 27.7436 18.9818 27.7436 18.9818V19.3091C27.7436 19.4727 27.8527 19.5818 28.0163 19.5818H29.5436V12.3818H28.0163C27.8527 12.3818 27.7436 12.5454 27.7436 12.6545ZM26.2163 18C26.8709 18 27.4709 17.6727 27.7436 17.2364V14.6182C27.5254 14.2364 26.8709 13.8545 26.2163 13.8545C24.9618 13.8545 24.0345 14.6182 24.0345 15.9273C24.0345 17.2364 24.9618 18 26.2163 18ZM32.5436 19.5273V12.3818H30.689V19.5273H32.5436ZM56.3799 12.9818C56.3799 12.9818 56.9799 12.2182 58.2345 12.2182C60.3072 12.2182 61.889 13.8 61.889 15.9818C61.889 18.1636 60.2527 19.7454 58.1799 19.7454C56.9254 19.7454 56.3254 18.9818 56.3254 18.9818V19.3091C56.3254 19.4727 56.2163 19.5818 56.0527 19.5818H54.5254V8.99999H56.3799V12.9818ZM57.9072 18C57.1981 18 56.6527 17.6182 56.3799 17.2364V14.6727C56.6527 14.2909 57.3072 13.9091 57.9072 13.9091C59.1618 13.9091 60.089 14.6727 60.089 15.9818C60.089 17.2909 59.1618 18 57.9072 18ZM53.5436 19.5273V15.2727C53.5436 14.1273 53.3254 13.4182 52.6709 12.9273C52.1254 12.4364 51.4709 12.2182 50.6527 12.2182C49.9436 12.2182 49.2345 12.4364 48.689 12.9818V12.6545C48.689 12.4909 48.5799 12.3818 48.4163 12.3818H46.9436V19.5273H48.7981V14.5636C49.1254 14.1273 49.7254 13.8545 50.2709 13.8545C51.3072 13.8545 51.689 14.2909 51.689 15.4909V19.5273H53.5436ZM42.4709 12.2182C41.2163 12.2182 40.6163 12.9818 40.6163 12.9818V8.99999H38.7618V19.5818H40.289C40.4527 19.5818 40.5618 19.4727 40.5618 19.3091V18.9818C40.5618 18.9818 41.1618 19.7454 42.4163 19.7454C44.489 19.7454 46.1254 18.1636 46.1254 15.9818C46.2345 13.8 44.5981 12.2182 42.4709 12.2182ZM40.6709 17.2364C40.9436 17.6182 41.489 18 42.1981 18C43.3981 18 44.3799 17.2909 44.3799 15.9818C44.3799 14.6727 43.4527 13.9091 42.1981 13.9091C41.5981 13.9091 40.9436 14.2909 40.6709 14.6727V17.2364ZM37.18 12.2182C37.7254 12.2182 37.9981 12.3273 37.9981 12.3273V14.0182C37.9981 14.0182 36.4709 13.5273 35.489 14.5636V19.5818H33.6345V12.3818H35.1618C35.3254 12.3818 35.4345 12.4909 35.4345 12.6545V12.9818C35.8709 12.5454 36.6345 12.2182 37.18 12.2182ZM9.41631 19.8545C8.37995 18.5454 7.7254 17.3454 7.45268 16.3091C7.34359 15.8727 7.34359 15.4909 7.39813 15.1636C7.45268 14.8364 7.56177 14.6182 7.7254 14.3454C8.10722 13.8545 8.70722 13.5273 9.41631 13.5273C10.1254 13.5273 10.7799 13.8545 11.1072 14.3454C11.2709 14.5636 11.3799 14.8364 11.4345 15.1636C11.489 15.4909 11.489 15.9273 11.3799 16.3091C11.1072 17.3454 10.4527 18.5454 9.41631 19.8545ZM15.3072 23.0182C16.2345 22.6364 16.9436 21.7636 17.0527 20.7818C17.1618 20.2909 17.1072 19.8 16.889 19.3091C16.8345 19.1454 16.7254 18.9273 16.6163 18.7091C16.52 18.5485 16.4425 18.3691 16.3618 18.1818C16.3053 18.051 16.2472 17.9164 16.1799 17.7818C14.8709 14.9454 13.4527 12.0545 11.9799 9.21818L11.9254 9.10908C11.8163 8.83636 11.6527 8.50908 11.489 8.23636L11.489 8.23634C11.3254 7.96362 11.1618 7.6909 10.9436 7.41818C10.5618 6.98181 10.0163 6.70908 9.41631 6.70908C8.81631 6.70908 8.27086 6.98181 7.88904 7.41818C7.67086 7.63636 7.50722 7.90908 7.34359 8.23636C7.23449 8.50908 7.07086 8.83636 6.90722 9.10908L6.85268 9.21818C5.37995 12 3.96177 14.8909 2.65268 17.7273V17.7818C2.61088 17.8654 2.56908 17.9454 2.52819 18.0237C2.409 18.252 2.29754 18.4654 2.21631 18.7091C2.10722 18.9273 1.99813 19.1454 1.94359 19.3091C1.77995 19.8545 1.7254 20.2909 1.77995 20.7818C1.88904 21.7636 2.59813 22.6364 3.5254 23.0182C3.96177 23.1818 4.45268 23.2364 4.99813 23.1818C5.48904 23.1273 5.97995 22.9636 6.47086 22.6909C7.17995 22.3091 7.88904 21.7091 8.65268 20.8364C7.39813 19.3091 6.57995 17.8909 6.30722 16.6364C6.14359 16.0364 6.14359 15.4909 6.19813 15C6.25268 14.5091 6.41631 14.0727 6.68904 13.6909C7.28904 12.8182 8.3254 12.3273 9.41631 12.3273C10.5618 12.3273 11.5436 12.8182 12.1436 13.6909C12.3618 14.0727 12.5799 14.5091 12.6345 15C12.689 15.4909 12.6345 16.0364 12.5254 16.6364C12.1981 17.8909 11.4345 19.3091 10.1799 20.8364C10.9981 21.7091 11.6527 22.3091 12.3618 22.6909C12.8527 22.9636 13.3436 23.1273 13.8345 23.1818C14.3254 23.2909 14.8709 23.1818 15.3072 23.0182Z" fill="#FF5A5F"/>
</svg>
