<svg width="163" height="14" viewBox="0 0 163 14" fill="none" xmlns="http://www.w3.org/2000/svg">
<path fill-rule="evenodd" clip-rule="evenodd" d="M63.7779 7.02298C63.7779 4.77598 62.1509 2.84997 59.1409 2.84997C56.131 2.84997 54.504 4.85623 54.504 7.02298V7.26374C54.504 9.51075 56.131 11.517 59.1409 11.517C62.1509 11.517 63.7779 9.51075 63.7779 7.26374V7.02298ZM59.142 13.3628C54.9931 13.3628 52.3086 10.3936 52.3086 7.34405V7.02305C52.3086 3.89328 54.9931 1.00427 59.142 1.00427C63.2908 1.00427 65.9753 3.89328 65.9753 7.02305V7.4243C65.9753 10.4738 63.2908 13.3628 59.142 13.3628Z" fill="white"/>
<path fill-rule="evenodd" clip-rule="evenodd" d="M7.15856 3.65247L4.63672 8.46749H9.8431L7.15856 3.65247ZM12.2838 12.9614L10.7382 10.1527H3.82343L2.35914 12.9614H0L6.34527 1.4054H8.13496L14.5616 12.8812H12.2838V12.9614Z" fill="white"/>
<path fill-rule="evenodd" clip-rule="evenodd" d="M24.6201 13.4087C20.3899 13.4087 18.4375 11.1617 18.4375 8.19244V1.45142H20.6339V8.19244C20.6339 10.279 22.0982 11.563 24.7828 11.563C27.5487 11.563 28.6876 10.279 28.6876 8.19244V1.45142H30.884V8.19244C30.884 11.0012 29.013 13.4087 24.6201 13.4087Z" fill="white"/>
<path fill-rule="evenodd" clip-rule="evenodd" d="M43.0871 3.21692V12.9272H40.8907V3.21692H35.7656V1.45142H48.2121V3.21692H43.0871Z" fill="white"/>
<path fill-rule="evenodd" clip-rule="evenodd" d="M85.554 12.9272V3.85893L84.9845 4.82193L80.1035 12.9272H79.046L74.165 4.82193L73.5956 3.85893V12.9272H71.4805V1.45142H74.4904L79.1273 9.31595L79.6154 10.279L80.1849 9.31595L84.7405 1.45142H87.7504V12.9272H85.554Z" fill="white"/>
<path fill-rule="evenodd" clip-rule="evenodd" d="M99.3812 3.69849L96.8594 8.51351H102.066L99.3812 3.69849ZM104.424 12.9272L102.879 10.1185H95.9641L94.4998 12.9272H92.1406L98.4859 1.45142H100.276L106.702 12.9272H104.424Z" fill="white"/>
<path fill-rule="evenodd" clip-rule="evenodd" d="M115.654 3.21692V12.9272H113.457V3.21692H108.332V1.45142H120.779V3.21692H115.654Z" fill="white"/>
<path fill-rule="evenodd" clip-rule="evenodd" d="M131.759 3.21692V12.9272H129.563V3.21692H124.438V1.45142H136.884V3.21692H131.759Z" fill="white"/>
<path fill-rule="evenodd" clip-rule="evenodd" d="M142.336 12.9271V2.4946C143.231 2.4946 143.556 2.0131 143.556 1.37109H144.451V12.8469H142.336" fill="white"/>
<path fill-rule="evenodd" clip-rule="evenodd" d="M161.697 4.66131C160.64 3.69831 159.094 2.81556 156.979 2.81556C153.888 2.81556 152.098 4.90206 152.098 7.14907V7.38982C152.098 9.55658 153.888 11.5628 157.142 11.5628C159.094 11.5628 160.721 10.6801 161.697 9.71708L162.999 11.0813C161.697 12.2851 159.501 13.4086 156.979 13.4086C152.586 13.4086 149.82 10.5998 149.82 7.47008V7.06882C149.82 3.93906 152.749 1.05005 157.06 1.05005C159.501 1.05005 161.779 2.0933 162.999 3.37731L161.697 4.66131Z" fill="white"/>
<path fill-rule="evenodd" clip-rule="evenodd" d="M60.5788 4.98237C60.9855 5.22312 61.0669 5.78488 60.8228 6.10588L58.7891 9.15539C58.545 9.55664 57.9756 9.63689 57.5688 9.39614C57.1621 9.15539 57.0807 8.59364 57.3248 8.27264L59.3585 5.22312C59.6839 4.90212 60.172 4.74162 60.5788 4.98237Z" fill="white"/>
</svg>
