<svg width="61" height="45" viewBox="0 0 61 45" fill="none" xmlns="http://www.w3.org/2000/svg">
<path fill-rule="evenodd" clip-rule="evenodd" d="M57.625 19.1866C57.625 18.5327 58.0337 17.7971 59.0963 17.7971C59.9954 17.7971 60.4858 18.451 60.5675 19.1866C60.5675 19.9223 59.9954 20.5762 59.0963 20.5762C58.0337 20.5762 57.625 19.8405 57.625 19.1866ZM60.1591 19.1866C60.1591 18.5327 59.7505 18.124 59.0966 18.124C58.4427 18.124 57.9523 18.5327 57.9523 19.1866C57.9523 19.7588 58.4427 20.2492 59.0966 20.2492C59.7505 20.2492 60.1591 19.8405 60.1591 19.1866ZM58.7704 19.3502H59.0156L59.3426 19.9223H59.7513L59.3426 19.2684C59.5878 19.2684 59.7513 19.105 59.7513 18.8598C59.7513 18.5328 59.5878 18.3693 59.2608 18.3693H58.3617V19.9223H58.7704V19.3502ZM59.425 18.8597C59.425 18.6962 59.2615 18.6962 59.098 18.6962V18.6145H58.7711V19.0232H59.1797C59.3432 19.0232 59.425 19.0232 59.425 18.8597Z" fill="white"/>
<path d="M12.832 20.9849H14.5485V28.7498H12.9138L12.832 20.9849Z" fill="white"/>
<path d="M12.832 17.8787H14.5485V20.3308H12.832V17.8787Z" fill="white"/>
<path d="M51.5781 17.7971H53.2946V28.6681H51.6599L51.5781 17.7971Z" fill="white"/>
<path d="M54.4336 17.7971H56.1501V28.6681H54.5153L54.4336 17.7971Z" fill="white"/>
<path fill-rule="evenodd" clip-rule="evenodd" d="M0 20.9849H9.31796C10.8709 20.9849 11.3614 22.2109 11.2796 22.8648C11.2796 23.6004 10.9527 24.2543 10.544 24.4178C11.2796 24.7447 11.8518 25.6438 11.77 26.4612C11.6883 28.5046 9.6449 28.6681 8.82754 28.6681H0V20.9849ZM8.66295 27.5239C9.31684 27.5239 9.88899 27.0334 9.88899 26.3796C9.88899 25.7257 9.31684 25.1535 8.66295 25.1535H1.63361V27.4421L8.66295 27.5239ZM9.48031 23.11C9.48031 23.6821 8.98989 24.0908 8.41774 24.0908L1.63361 24.0091V22.1291H8.41774C8.98989 22.1291 9.48031 22.5378 9.48031 23.11Z" fill="white"/>
<path d="M42.5861 20.9848C41.9322 20.9848 40.5427 21.3118 40.4609 22.6195C40.4609 23.7639 41.1148 24.336 41.4418 24.4177C40.9514 24.663 40.4609 25.5621 40.4609 26.2977C40.4609 27.115 40.7879 28.668 43.4034 28.668H50.5963V27.5237H43.6487C42.9948 27.5237 42.4226 27.0333 42.4226 26.3794C42.4226 25.7255 42.9948 25.1534 43.6487 25.1534H50.2693V24.0091H43.4852C42.913 24.0091 42.4226 23.6004 42.4226 23.0282C42.4226 22.4561 42.913 22.0474 43.4852 22.0474H50.5963V20.9031L42.5861 20.9848Z" fill="white"/>
<path d="M37.436 23.3552H39.1525C39.1525 21.4752 38.2534 20.9031 35.883 20.9031H31.2241C30.1615 20.9031 28.3633 21.3935 28.3633 22.9465C28.3633 24.4995 29.0172 25.1534 30.8971 25.1534H36.4552C37.1091 25.1534 37.763 25.5621 37.763 26.2977C37.763 27.0333 37.3543 27.5237 36.21 27.5237H31.7962C31.2241 27.5237 30.0797 27.442 30.0797 26.2977H28.3633C28.3633 27.2785 28.5268 28.7498 31.1423 28.7498H36.6187C37.6812 28.7498 39.4794 28.2594 39.4794 26.2977C39.4794 24.336 37.8447 24.0908 36.8639 24.0908H31.3058C30.4067 24.0908 30.0797 23.5186 30.0797 23.11C30.0797 22.7013 30.4067 22.1291 31.3058 22.1291H36.1282C36.9456 22.1291 37.436 22.4561 37.436 23.3552Z" fill="white"/>
<path d="M25.4201 23.3552H27.1366C27.1366 21.4752 26.2375 20.9031 23.8671 20.9031H19.2081C18.1456 20.9031 16.3474 21.3935 16.3474 22.9465C16.3474 24.4995 17.0013 25.1534 18.8812 25.1534H24.4393C25.0932 25.1534 25.7471 25.5621 25.7471 26.2977C25.7471 27.0333 25.3384 27.5237 24.1941 27.5237H19.7803C19.2081 27.5237 18.0638 27.442 18.0638 26.2977H16.2656C16.2656 27.2785 16.4291 28.7498 19.0447 28.7498H24.521C25.5836 28.7498 27.3818 28.2594 27.3818 26.2977C27.3818 24.336 25.7471 24.0908 24.7662 24.0908H19.2081C18.309 24.0908 17.9821 23.5186 17.9821 23.11C17.9821 22.7013 18.309 22.1291 19.2081 22.1291H24.0306C24.9297 22.1291 25.4201 22.4561 25.4201 23.3552Z" fill="white"/>
<path fill-rule="evenodd" clip-rule="evenodd" d="M51.1673 42.5632C53.7828 42.5632 52.7203 40.1928 52.2298 39.3755C51.4942 38.2312 47.8978 31.8557 47.8978 31.8557H8.82778C8.82778 31.8557 5.23138 38.1494 4.49575 39.3755C4.00533 40.1928 3.02449 42.4815 5.64006 42.4815L51.1673 42.5632Z" fill="white"/>
<path fill-rule="evenodd" clip-rule="evenodd" d="M16.2344 17.9457H39.9379C39.9379 17.9457 33.9712 7.31997 32.5817 4.94961C31.2739 2.74273 30.5383 1.68016 28.0044 1.68016C25.4706 1.59842 24.8167 2.66099 23.4272 4.94961C22.2011 7.1565 16.2344 17.9457 16.2344 17.9457Z" fill="white"/>
</svg>
