<svg width="87" height="45" viewBox="0 0 87 45" fill="none" xmlns="http://www.w3.org/2000/svg">
<path fill-rule="evenodd" clip-rule="evenodd" d="M8.1 27.3273C5.31818 27.3273 3.51818 25.3637 3.51818 22.5C3.51818 19.6364 5.31818 17.6728 8.1 17.6728C10.0636 17.6728 11.4545 18.5728 12.2727 19.8818L14.6455 17.8364C13.3364 15.9546 11.2909 14.5637 8.1 14.5637C3.02727 14.5637 0 18.2455 0 22.5C0 26.7546 3.02727 30.4364 8.1 30.4364C11.2909 30.4364 13.3364 29.0455 14.6455 27.1637L12.2727 25.1182C11.4545 26.4273 10.0636 27.3273 8.1 27.3273ZM31.3363 30.4364C36.0818 30.4364 39.4363 27.1637 39.4363 22.5C39.4363 17.8364 36.0818 14.5637 31.3363 14.5637C26.5909 14.5637 23.2363 17.8364 23.2363 22.5C23.2363 27.1637 26.5909 30.4364 31.3363 30.4364ZM26.6727 22.4182C26.6727 25.2818 28.6363 27.3273 31.3363 27.3273C34.1182 27.3273 36 25.3636 36 22.4182C36 19.5546 34.1182 17.5091 31.3363 17.5091C28.5545 17.5091 26.6727 19.5546 26.6727 22.4182ZM52.6091 30.1909H56.291V17.9182H61.6091L61.2819 14.7273H47.6182L47.291 17.9182H52.5273V30.1909H52.6091ZM81.9 22.8273C80.4273 24.3818 80.1001 25.0364 80.1001 26.4273V30.1091H76.5001V26.4273C76.5001 25.0364 76.091 24.3818 74.7001 22.8273L73.2273 21.1909C71.5091 19.3091 70.7728 17.6727 70.7728 15.1364V14.8091H74.4546V15.0546C74.4546 17.2636 74.8637 18.0818 76.2546 19.6364L77.2364 20.7818C77.891 21.4364 78.3 22.0909 78.3 22.0909C78.3 22.0909 78.791 21.4364 79.3637 20.7818L80.4273 19.6364C81.8182 18.0818 82.2273 17.2636 82.2273 15.0546V14.8091H85.8273V15.1364C85.8273 17.6727 85.091 19.2273 83.3728 21.1909L81.9 22.8273Z" fill="white"/>
</svg>
