<svg width="80" height="30" viewBox="0 0 80 30" fill="none" xmlns="http://www.w3.org/2000/svg">
<path fill-rule="evenodd" clip-rule="evenodd" d="M79.5818 13.0909V14.4545V14.5091H77.7818V17.8909C77.7818 18.3273 77.8364 18.6545 78 18.8182C78.1637 19.0364 78.4364 19.0909 78.7637 19.0909C78.8182 19.0909 78.9818 19.0909 79.0909 19.0364C79.2546 18.9818 79.3637 18.9273 79.4727 18.8727L79.5273 18.8182V20.1818C79.4182 20.2364 79.2546 20.2909 78.9818 20.3455C78.8727 20.3455 78.75 20.3591 78.6273 20.3727C78.5046 20.3864 78.3818 20.4 78.2727 20.4C76.8 20.4 76.0909 19.6364 76.0909 18.1091V14.4545H73.5273V20.2364H71.7818V14.4545H70.5818V13.0909H71.7818V12.1091C71.7818 11.6182 71.8909 11.1818 72.1091 10.8C72.3273 10.3636 72.6546 10.0909 73.0364 9.87273C73.4182 9.65455 73.9091 9.54546 74.4 9.54546C74.8364 9.54546 75.1637 9.6 75.3818 9.65455H75.4364V11.1273L75.3818 11.0727C75.1091 10.9636 74.8364 10.9091 74.6182 10.9091C74.2364 10.9091 73.9636 11.0182 73.8 11.2364C73.6364 11.4545 73.5273 11.7273 73.5273 12.1636V13.0909H76.0909V11.4545H76.1455L77.7818 10.9636H77.8364V13.0909H79.5818ZM34.9091 10.3636C35.0727 10.2 35.3455 10.0909 35.6182 10.0909C35.9455 10.0909 36.1636 10.2 36.3818 10.3636C36.5455 10.5818 36.6546 10.8 36.6546 11.0727C36.6546 11.3455 36.5455 11.6182 36.3273 11.7818C36.1636 11.9455 35.8909 12.0545 35.6182 12.0545C35.3455 12.0545 35.1273 11.9455 34.9091 11.7818C34.6909 11.5636 34.5818 11.3455 34.5818 11.0727C34.5818 10.8 34.6909 10.5273 34.9091 10.3636ZM28.0909 16.5273L27.6 17.8364H27.5455C27.4909 17.5636 27.3273 17.0727 27.1091 16.5273L24.5455 10.3091H22.0364V20.2364H23.6727V14.1273V12.7636C23.6727 12.61 23.6554 12.4736 23.6403 12.3545C23.6286 12.2623 23.6182 12.1805 23.6182 12.1091H23.6727C23.7108 12.3753 23.7753 12.5885 23.8294 12.7671C23.8529 12.8447 23.8744 12.9158 23.8909 12.9818L26.9455 20.2364H28.0909L31.1455 12.9273C31.1656 12.8667 31.1858 12.7838 31.2088 12.6896L31.2088 12.6895C31.2478 12.529 31.2949 12.3355 31.3636 12.1636H31.4182C31.3636 12.8727 31.3636 13.5273 31.3636 13.9636V20.2909H33.1091V10.3091H30.7091L28.0909 16.5273ZM34.7455 13.0909H36.4364V20.2364H34.7455V13.0909ZM42.5455 13.0364C42.2182 12.9818 41.8909 12.9273 41.5637 12.9273C40.8 12.9273 40.0909 13.0909 39.4909 13.4182C38.8909 13.7455 38.4 14.2364 38.1273 14.7818C37.8 15.3818 37.6364 16.0364 37.6364 16.8545C37.6364 17.5636 37.8 18.1636 38.0727 18.7091C38.4 19.2545 38.7818 19.6909 39.3818 19.9636C39.9273 20.2364 40.5818 20.4 41.2909 20.4C42.1091 20.4 42.8182 20.2364 43.3636 19.9091V18.3818L43.3091 18.4364C43.0364 18.6 42.7636 18.7636 42.4909 18.8727C42.1637 18.9818 41.8909 19.0364 41.6727 19.0364C40.9637 19.0364 40.4727 18.8182 40.0909 18.4364C39.7091 18 39.4909 17.4545 39.4909 16.7455C39.4909 16.0364 39.7091 15.4364 40.0909 15C40.4727 14.5636 41.0182 14.3455 41.6727 14.3455C42.2182 14.3455 42.8182 14.5091 43.3091 14.8909L43.3636 14.9455V13.3091C43.1455 13.2 42.8727 13.0909 42.5455 13.0364ZM47.0727 13.3636C47.4 13.0909 47.7818 12.9818 48.2182 12.9818C48.4909 12.9818 48.7091 13.0364 48.7637 13.0909H48.8182V14.7273L48.7637 14.6727C48.7091 14.6182 48.5455 14.5636 48.3818 14.5091C48.3 14.5091 48.2182 14.4955 48.1364 14.4818C48.0546 14.4682 47.9727 14.4545 47.8909 14.4545C47.4546 14.4545 47.0727 14.6727 46.8 15.0545C46.4727 15.4364 46.3636 15.9818 46.3636 16.5818V20.2364H44.7273V13.0909H46.4182V14.3455C46.5818 13.9091 46.8 13.5818 47.0727 13.3636ZM52.8546 12.9273C51.6546 12.9273 50.6727 13.2545 50.0182 13.9636C49.3091 14.6727 48.9818 15.6 48.9818 16.7455C48.9818 17.8364 49.3091 18.7636 49.9636 19.4182C50.6182 20.0727 51.5455 20.4 52.6364 20.4C53.8364 20.4 54.7636 20.0727 55.4182 19.3636C56.1273 18.6545 56.4546 17.7273 56.4546 16.5818C56.4546 15.4364 56.1273 14.5636 55.4727 13.9091C54.9273 13.2545 54 12.9273 52.8546 12.9273ZM52.8 19.0364C53.4 19.0364 53.8909 18.8182 54.2182 18.4364C54.6 18 54.7091 17.4 54.7637 16.7455C54.7637 15.9818 54.5455 15.3818 54.2182 15C53.8909 14.6182 53.4 14.4 52.8 14.4C52.1455 14.4 51.7091 14.5636 51.3273 15C50.9455 15.3818 50.7818 15.9818 50.7818 16.7455C50.7818 17.4545 50.9455 18.0545 51.3273 18.4364C51.6546 18.8182 52.2 19.0364 52.8 19.0364ZM60.3273 16.0364C59.7818 15.8182 59.4546 15.6545 59.2909 15.4909C59.1818 15.3818 59.0727 15.1636 59.0727 14.9455C59.0727 14.7273 59.1273 14.5636 59.3455 14.4545C59.5637 14.3455 59.7818 14.2364 60.1091 14.2364C60.3818 14.2364 60.7091 14.2909 60.9818 14.3455C61.202 14.3895 61.4222 14.5047 61.6137 14.6048C61.6594 14.6287 61.7034 14.6517 61.7455 14.6727L61.8 14.7273V13.1455H61.7455C61.6642 13.1251 61.583 13.0973 61.4962 13.0675C61.3497 13.0172 61.1873 12.9615 60.9818 12.9273C60.6546 12.8727 60.3818 12.8727 60.1637 12.8727C59.3455 12.8727 58.6909 13.0909 58.1455 13.4727C57.6 13.8545 57.3818 14.4 57.3818 15.0545C57.3818 15.3818 57.4364 15.7091 57.5455 15.9273C57.6546 16.1455 57.8182 16.4182 58.0909 16.5818C58.3091 16.7455 58.6909 16.9636 59.1273 17.1818C59.2544 17.2363 59.3755 17.2848 59.4866 17.3292L59.4867 17.3292L59.4869 17.3293L59.4869 17.3293L59.4869 17.3293C59.7091 17.4182 59.8909 17.4909 60 17.5636C60.1637 17.6727 60.3273 17.7818 60.3818 17.8909C60.4364 18 60.4909 18.1091 60.4909 18.2727C60.4909 18.7636 60.1091 18.9818 59.3455 18.9818C59.0727 18.9818 58.7455 18.9273 58.4182 18.8182C58.0364 18.7091 57.7091 18.5455 57.4364 18.3273L57.3818 18.2727V19.9091H57.4364C57.7091 20.0182 57.9818 20.1273 58.3637 20.1818C58.4194 20.1898 58.4739 20.1977 58.5273 20.2055C58.8398 20.2511 59.1125 20.2909 59.3455 20.2909C60.2182 20.2909 60.9273 20.0727 61.4727 19.6909C62.0182 19.2545 62.2909 18.7636 62.2909 18.0545C62.2909 17.5636 62.1818 17.1273 61.8546 16.8545C61.7691 16.8057 61.6781 16.7514 61.581 16.6934C61.2447 16.4925 60.8352 16.248 60.3273 16.0364ZM63.9818 13.9636C64.6364 13.2545 65.6182 12.9273 66.8182 12.9273C67.9637 12.9273 68.8364 13.2545 69.4364 13.9091C70.0909 14.5636 70.4182 15.4364 70.4182 16.5818C70.4182 17.7273 70.0909 18.6545 69.3818 19.3636C68.7273 20.0727 67.8 20.4 66.6 20.4C65.5091 20.4 64.5818 20.0727 63.9273 19.4182C63.2727 18.7636 62.9455 17.8364 62.9455 16.7455C62.9455 15.6 63.3273 14.6727 63.9818 13.9636ZM68.1818 18.4364C67.8546 18.8182 67.3636 19.0364 66.7636 19.0364C66.1091 19.0364 65.6182 18.8182 65.2909 18.4364C64.9091 18.0545 64.7455 17.4545 64.7455 16.7455C64.7455 15.9818 64.9091 15.3818 65.2909 15C65.6727 14.5636 66.1091 14.4 66.7636 14.4C67.3636 14.4 67.8546 14.6182 68.1818 15C68.5091 15.3818 68.7273 15.9818 68.7273 16.7455C68.6727 17.4 68.5091 18 68.1818 18.4364Z" fill="#737373"/>
<path d="M0 6.98181H8.07273V14.8364H0V6.98181Z" fill="#F25022"/>
<path d="M8.94543 6.98181H17.0182V14.8364H8.94543V6.98181Z" fill="#7FBA00"/>
<path d="M0 15.6545H8.07273V23.5636H0V15.6545Z" fill="#00A4EF"/>
<path d="M8.94543 15.6545H17.0182V23.5636H8.94543V15.6545Z" fill="#FFB900"/>
</svg>
