<svg width="189" height="41" viewBox="0 0 189 41" fill="none" xmlns="http://www.w3.org/2000/svg">
<path fill-rule="evenodd" clip-rule="evenodd" d="M187.264 14.8959V18.0994V18.2275H183.028V26.172C183.028 27.1971 183.156 27.9659 183.541 28.3503C183.926 28.8629 184.568 28.991 185.338 28.991C185.467 28.991 185.852 28.991 186.108 28.8629C186.493 28.7347 186.75 28.6066 187.007 28.4785L187.135 28.3503V31.5538C186.878 31.6819 186.493 31.81 185.852 31.9382C185.595 31.9382 185.306 31.9702 185.017 32.0022C184.729 32.0343 184.44 32.0663 184.183 32.0663C180.718 32.0663 179.049 30.2724 179.049 26.6845V18.0994H173.017V31.6819H168.909V18.0994H166.086V14.8959H168.909V12.5895C168.909 11.4362 169.166 10.4111 169.68 9.51417C170.193 8.48907 170.963 7.84839 171.861 7.33584C172.76 6.82329 173.915 6.56702 175.07 6.56702C176.097 6.56702 176.867 6.69515 177.381 6.82329H177.509V10.283L177.381 10.1549C176.739 9.89858 176.097 9.77045 175.584 9.77045C174.685 9.77045 174.043 10.0267 173.658 10.5393C173.273 11.0518 173.017 11.6925 173.017 12.7176V14.8959H179.049V11.0518H179.177L183.028 9.89858H183.156V14.8959H187.264ZM82.1445 8.48908C82.5295 8.10466 83.1713 7.84839 83.813 7.84839C84.5831 7.84839 85.0965 8.10466 85.6099 8.48908C85.995 9.00162 86.2517 9.51417 86.2517 10.1549C86.2517 10.7955 85.995 11.4362 85.4816 11.8206C85.0965 12.205 84.4548 12.4613 83.813 12.4613C83.1713 12.4613 82.6579 12.205 82.1445 11.8206C81.6311 11.3081 81.3744 10.7955 81.3744 10.1549C81.3744 9.51417 81.6311 8.87349 82.1445 8.48908ZM66.1006 22.9686L64.9455 26.0438H64.8171C64.6888 25.4032 64.3037 24.2499 63.7903 22.9686L57.7579 8.36092H51.8538V31.6819H55.7043V17.3305V14.1271C55.7043 13.7661 55.6635 13.4457 55.6279 13.1661C55.6004 12.9494 55.5759 12.7572 55.5759 12.5894H55.7043C55.7938 13.2148 55.9456 13.7156 56.0729 14.1353L56.0729 14.1353L56.0729 14.1353L56.0729 14.1353L56.0729 14.1353C56.1282 14.3175 56.1788 14.4845 56.2177 14.6396L63.4053 31.6819H66.1006L73.2883 14.5115C73.3357 14.3693 73.3832 14.1746 73.4372 13.9531L73.4372 13.9531L73.4372 13.953C73.5291 13.5758 73.6399 13.1213 73.8017 12.7176H73.93C73.8017 14.3834 73.8017 15.921 73.8017 16.9461V31.81H77.9089V8.36092H72.2615L66.1006 22.9686ZM81.7596 14.8959H85.7385V31.6819H81.7596V14.8959ZM100.114 14.7678C99.3436 14.6396 98.5735 14.5115 97.8034 14.5115C96.0065 14.5115 94.3379 14.8959 92.9261 15.6647C91.5142 16.4336 90.3591 17.5868 89.7173 18.8682C88.9472 20.2777 88.5622 21.8153 88.5622 23.7374C88.5622 25.4032 88.9472 26.8127 89.589 28.094C90.3591 29.3754 91.2575 30.4005 92.6694 31.0412C93.9529 31.6819 95.4931 32.0663 97.1617 32.0663C99.0869 32.0663 100.755 31.6819 102.039 30.9131V27.3252L101.911 27.4534C101.269 27.8378 100.627 28.2222 99.9854 28.4784C99.2153 28.7347 98.5735 28.8629 98.0601 28.8629C96.3916 28.8629 95.2364 28.3503 94.3379 27.4534C93.4395 26.4283 92.9261 25.1469 92.9261 23.4811C92.9261 21.8153 93.4395 20.4058 94.3379 19.3807C95.2364 18.3556 96.5199 17.8431 98.0601 17.8431C99.3436 17.8431 100.755 18.2275 101.911 19.1244L102.039 19.2526V15.4085C101.526 15.1522 100.884 14.8959 100.114 14.7678ZM110.766 15.5366C111.537 14.8959 112.435 14.6397 113.462 14.6397C114.104 14.6397 114.617 14.7678 114.745 14.8959H114.874V18.7401L114.745 18.6119C114.617 18.4838 114.232 18.3557 113.847 18.2275C113.654 18.2275 113.462 18.1955 113.269 18.1634C113.077 18.1314 112.884 18.0994 112.692 18.0994C111.665 18.0994 110.766 18.6119 110.125 19.5089C109.355 20.4058 109.098 21.6872 109.098 23.0967V31.6819H105.247V14.8959H109.226V17.8431C109.611 16.818 110.125 16.0492 110.766 15.5366ZM124.372 14.5115C121.548 14.5115 119.238 15.2803 117.698 16.9461C116.029 18.6119 115.259 20.7902 115.259 23.4811C115.259 26.0438 116.029 28.2222 117.569 29.7598C119.11 31.2975 121.291 32.0663 123.859 32.0663C126.682 32.0663 128.864 31.2975 130.404 29.6317C132.073 27.9659 132.843 25.7876 132.843 23.0967C132.843 20.4058 132.073 18.3556 130.533 16.818C129.249 15.2803 127.067 14.5115 124.372 14.5115ZM124.244 28.8629C125.655 28.8629 126.811 28.3503 127.581 27.4534C128.479 26.4283 128.736 25.0188 128.864 23.4811C128.864 21.6872 128.351 20.2777 127.581 19.3807C126.811 18.4838 125.655 17.9712 124.244 17.9712C122.703 17.9712 121.677 18.3556 120.778 19.3807C119.88 20.2777 119.495 21.6872 119.495 23.4811C119.495 25.1469 119.88 26.5564 120.778 27.4534C121.548 28.3503 122.832 28.8629 124.244 28.8629ZM141.956 21.8153C140.672 21.3028 139.902 20.9184 139.517 20.5339C139.26 20.2777 139.004 19.7651 139.004 19.2526C139.004 18.74 139.132 18.3556 139.645 18.0993C140.159 17.8431 140.672 17.5868 141.442 17.5868C142.084 17.5868 142.854 17.7149 143.496 17.8431C144.014 17.9465 144.532 18.2171 144.983 18.4523C145.09 18.5084 145.194 18.5625 145.293 18.6119L145.421 18.74V15.0241H145.293C145.102 14.9763 144.911 14.9109 144.706 14.8409C144.362 14.7229 143.979 14.5919 143.496 14.5115C142.726 14.3834 142.084 14.3834 141.571 14.3834C139.645 14.3834 138.105 14.8959 136.822 15.7929C135.538 16.6898 135.025 17.9712 135.025 19.5089C135.025 20.2777 135.153 21.0465 135.41 21.559C135.667 22.0716 136.052 22.7123 136.693 23.0967C137.207 23.4811 138.105 23.9936 139.132 24.5062C139.431 24.6343 139.717 24.7482 139.978 24.8526C140.501 25.0615 140.929 25.2323 141.186 25.4032C141.571 25.6594 141.956 25.9157 142.084 26.172C142.212 26.4283 142.341 26.6845 142.341 27.0689C142.341 28.2222 141.442 28.7347 139.645 28.7347C139.004 28.7347 138.234 28.6066 137.463 28.3503C136.565 28.094 135.795 27.7096 135.153 27.1971L135.025 27.0689V30.9131H135.153C135.795 31.1693 136.437 31.4256 137.335 31.5537C137.466 31.5724 137.594 31.5911 137.72 31.6094C138.455 31.7165 139.097 31.81 139.645 31.81C141.699 31.81 143.368 31.2975 144.651 30.4005C145.935 29.3754 146.576 28.2222 146.576 26.5564C146.576 25.4032 146.32 24.3781 145.549 23.7374C145.348 23.6226 145.134 23.4951 144.906 23.359L144.906 23.3588L144.906 23.3587C144.114 22.8869 143.151 22.3125 141.956 21.8153ZM150.555 16.9461C152.095 15.2803 154.406 14.5115 157.229 14.5115C159.925 14.5115 161.978 15.2803 163.39 16.818C164.93 18.3556 165.701 20.4058 165.701 23.0967C165.701 25.7876 164.93 27.9659 163.262 29.6317C161.722 31.2975 159.54 32.0663 156.716 32.0663C154.149 32.0663 151.967 31.2975 150.427 29.7598C148.887 28.2222 148.117 26.0438 148.117 23.4811C148.117 20.7902 149.015 18.6119 150.555 16.9461ZM160.438 27.4534C159.668 28.3503 158.513 28.8629 157.101 28.8629C155.561 28.8629 154.406 28.3503 153.636 27.4534C152.737 26.5564 152.352 25.1469 152.352 23.4811C152.352 21.6872 152.737 20.2777 153.636 19.3807C154.534 18.3556 155.561 17.9712 157.101 17.9712C158.513 17.9712 159.668 18.4838 160.438 19.3807C161.208 20.2777 161.722 21.6872 161.722 23.4811C161.593 25.0188 161.208 26.4283 160.438 27.4534Z" fill="white"/>
<path d="M0 0.544586H18.9959V18.9963H0V0.544586Z" fill="white"/>
<path d="M21.0492 0.544586H40.0451V18.9963H21.0492V0.544586Z" fill="white"/>
<path d="M0 20.9184H18.9959V39.4983H0V20.9184Z" fill="white"/>
<path d="M21.0492 20.9184H40.0451V39.4983H21.0492V20.9184Z" fill="white"/>
</svg>
