<svg width="199" height="56" viewBox="0 0 199 56" fill="none" xmlns="http://www.w3.org/2000/svg">
<path d="M147.477 42.6092C140.706 42.6092 136.5 38.6875 136.5 32.3662C136.5 25.8057 140.382 21.7241 146.633 21.7241H147.157C147.941 21.7241 149.021 21.7497 150.495 21.9339V14.015H154.911V41.8955C154.911 41.8955 150.715 42.6092 147.477 42.6092ZM147.437 25.2007C143.16 25.2007 141.08 27.5095 141.08 32.2562C141.08 36.5181 143.59 39.1671 147.621 39.1671C148.396 39.1671 149.284 39.116 150.494 39.0124V25.4847C149.285 25.2902 148.311 25.2007 147.437 25.2007ZM86.9947 41.9696L75.0671 21.1549L75.0633 41.9696H70.9062V15.619H76.7261L88.6537 36.2482L88.6486 15.619H92.8606V41.9696H86.9947ZM124.988 42.3751C122.979 42.3751 120.886 42.15 118.393 41.6703L118.123 41.6192V37.9379L118.517 38.0224C120.715 38.4918 122.614 38.8921 124.513 38.8921C126.047 38.8921 129.619 38.6517 129.619 36.3941C129.619 34.501 127.151 34.0252 125.168 33.6453L125.043 33.6197C124.672 33.5506 124.323 33.4803 124.028 33.4061C121.12 32.6514 118.017 31.5169 118.017 27.6195C118.017 23.818 121.025 21.6397 126.272 21.6397C128.79 21.6397 130.618 21.9083 132.088 22.1283L132.802 22.2332V25.8057L132.422 25.7366C130.759 25.4309 128.81 25.1163 126.936 25.1163C124.852 25.1163 122.38 25.5064 122.38 27.3598C122.38 28.8986 124.403 29.3386 126.746 29.8489C130.023 30.5576 134.086 31.4478 134.086 35.9195C134.086 40.0216 130.773 42.3751 124.988 42.3751ZM167.307 42.3751C162.736 42.3751 158.504 41.5693 158.504 35.7341C158.504 29.3833 165.049 29.3833 168.962 29.3833C169.351 29.3833 171.19 29.469 171.754 29.4933C171.749 25.9311 171.704 25.0817 166.538 25.0817C164.49 25.0817 162.216 25.4859 160.208 25.8466L159.824 25.9157V22.3982L160.082 22.3432C162.41 21.8699 164.655 21.6397 166.943 21.6397C171.95 21.6397 176.191 22.1437 176.191 28.355V41.9006L175.887 41.9351C172.419 42.3239 169.666 42.3751 167.308 42.3751H167.307ZM168.852 32.5261C165.078 32.5261 162.74 33.0812 162.74 35.8441C162.74 39.0418 165.723 39.3066 168.522 39.3066C169.565 39.3066 171.444 39.1723 172.019 39.1313V32.6361C171.21 32.6015 169.106 32.5261 168.852 32.5261ZM105.351 42.3751C100.774 42.3751 96.5432 41.5693 96.5432 35.7341C96.5432 29.3833 103.088 29.3833 107 29.3833C107.39 29.3833 109.233 29.469 109.798 29.4933C109.793 25.9311 109.743 25.0817 104.577 25.0817C102.528 25.0817 100.254 25.4859 98.2456 25.8466L97.8619 25.9157V22.3982L98.1267 22.3432C100.382 21.8768 102.679 21.6411 104.983 21.6397C109.988 21.6397 114.23 22.1437 114.23 28.355V41.9006L113.925 41.9351C110.458 42.3239 107.705 42.3751 105.351 42.3751ZM106.89 32.5261C103.118 32.5261 100.785 33.0812 100.785 35.8441C100.785 39.0418 103.762 39.3066 106.561 39.3066C107.61 39.3066 109.489 39.1723 110.063 39.1313V32.6361C109.248 32.6015 107.146 32.5261 106.891 32.5261" fill="white"/>
<mask id="mask0" mask-type="alpha" maskUnits="userSpaceOnUse" x="179" y="20" width="20" height="32">
<path d="M179.074 20.4452H198.295V51.1435H179.074V20.4452Z" fill="white"/>
</mask>
<g mask="url(#mask0)">
<path d="M193.774 50.9231V42.2789C192.051 42.5194 191.137 42.5194 190.397 42.5194C188.647 42.5194 186.704 42.1395 185.2 41.5051C181.832 40.1045 179.824 36.5486 179.824 31.9861C179.824 29.7093 180.379 25.5458 184.091 23.3023C185.955 22.1895 188.154 21.7137 191.461 21.7137C192.645 21.7137 194.243 21.8032 195.787 21.8927L198.296 22.0232V48.92L193.774 50.9231ZM191.131 25.1915C186.644 25.1902 184.37 27.4798 184.37 31.9861C184.37 37.788 187.762 39.007 190.615 39.007C191.309 39.007 192.089 39.007 193.818 38.787V25.3169C192.464 25.2273 191.839 25.1915 191.13 25.1915H191.131Z" fill="white"/>
</g>
<mask id="mask1" mask-type="alpha" maskUnits="userSpaceOnUse" x="33" y="0" width="35" height="43">
<path d="M33.2539 0H67.7895V42.1897H33.2539V0Z" fill="white"/>
</mask>
<g mask="url(#mask1)">
<path d="M51.1758 0L36.5711 40.1252C36.3905 40.6193 36.0745 41.0525 35.6591 41.3753C35.2438 41.6981 34.746 41.8974 34.2227 41.9505V41.9697H49.6613C50.8701 41.9697 51.9049 41.2009 52.2899 40.1265L66.8997 0H51.1758Z" fill="white"/>
</g>
<path d="M32.9662 41.3609C33.8616 41.3609 34.6457 40.9157 35.1253 40.2417C35.1752 40.1713 35.3504 39.9257 35.4745 39.5919L40.8314 24.8669L37.6976 16.2676C37.515 15.8321 37.2194 15.4534 36.8412 15.1707C36.4631 14.8879 36.0162 14.7114 35.5469 14.6595C35.0776 14.6076 34.6029 14.6821 34.1721 14.8753C33.7413 15.0686 33.37 15.3735 33.0967 15.7585C33.0455 15.8289 32.837 16.1422 32.7475 16.4083L27.3906 31.1281L30.5385 39.762C30.7427 40.2366 31.0814 40.6409 31.5129 40.925C31.9443 41.2092 32.4496 41.3607 32.9662 41.3609Z" fill="white"/>
<mask id="mask2" mask-type="alpha" maskUnits="userSpaceOnUse" x="0" y="12" width="35" height="44">
<path d="M0 12.7705H34.5356V56.0001H0V12.7705Z" fill="white"/>
</mask>
<g mask="url(#mask2)">
<path d="M34.1128 14.0289H18.504C17.2952 14.0289 16.2605 14.7938 15.8703 15.8734L1.26562 55.9986H16.9895L31.5955 15.8746C31.785 15.3526 32.1256 14.8988 32.5739 14.571C33.0222 14.2432 33.5579 14.0563 34.1128 14.034V14.0289Z" fill="white"/>
</g>
</svg>

