<svg width="89" height="45" viewBox="0 0 89 45" fill="none" xmlns="http://www.w3.org/2000/svg">
<path d="M0 30.0473H6.05901C8.92907 30.0473 10.8779 31.4469 10.8779 34.1398C10.8779 36.3367 9.37198 37.6654 7.91924 38.126C8.36215 38.4981 8.68104 38.9941 8.94679 39.5256C9.54915 40.7658 9.97434 42.1476 11.2499 42.1476C11.5688 42.1476 11.8346 42.0413 11.8346 42.0413L11.5511 44.6279C11.5511 44.6279 10.7716 44.8228 10.0984 44.8228C8.36215 44.8228 7.35231 44.1496 6.32476 41.811C5.88185 40.7658 5.27949 38.941 4.46454 38.941H3.63186V44.752H0V30.0473ZM3.63186 32.6871V36.3012H4.94288C5.98815 36.3012 7.21058 35.9823 7.21058 34.4056C7.21058 33.1123 6.37791 32.6871 5.38579 32.6871H3.63186ZM15.803 30.0473H19.4881L24.4486 44.752H20.7636L19.8424 41.9705H14.9349L14.0491 44.752H10.8602L15.803 30.0473ZM15.803 39.2599H18.9566L17.9467 36.1595C17.5924 35.1142 17.4507 33.626 17.4507 33.626H17.3621C17.3621 33.626 17.1495 35.1319 16.8129 36.1241L15.803 39.2599ZM24.6081 44.752H27.6022V37.6831C27.6022 36.8859 27.4959 35.8937 27.425 35.0611H27.5136C27.8148 35.8406 28.2045 36.7973 28.5766 37.4528L32.5805 44.7342H36.3895V30.0296H33.3954V37.0985C33.3954 37.9488 33.5017 39.1181 33.5549 39.9508H33.4663C33.112 39.0827 32.6868 37.9666 32.3502 37.3288L28.488 30.0296H24.5904V44.752H24.6081ZM37.169 37.2933C37.169 42.6614 39.7379 45 43.7241 45C47.6394 45 49.8008 42.8031 49.5705 39.8091L46.3816 39.4902C46.6473 41.4036 45.4249 42.3425 43.919 42.3425C42.3245 42.3425 40.9249 41.315 40.9249 37.3111C40.9249 33.5197 42.2182 32.3505 43.795 32.3505C45.4426 32.3505 46.3639 33.2894 45.9918 35.628L49.3934 35.3268C49.8717 32.1379 48.1532 29.7993 43.8658 29.7993C39.8088 29.7816 37.169 31.9784 37.169 37.2933ZM50.3146 44.752H53.9465V38.5158H58.411V44.752H62.0429V30.0473H58.411V35.6103H53.9465V30.0473H50.3146V44.752ZM63.5133 44.752H73.47V42.0413H67.1452V38.6044H72.2652V35.8937H67.1452V32.7402H73.2396V30.0296H63.4956V44.752H63.5133ZM74.1786 30.0473H80.2376C83.1077 30.0473 85.0565 31.4469 85.0565 34.1398C85.0565 36.3367 83.5506 37.6654 82.0979 38.126C82.5408 38.4981 82.8597 38.9941 83.1254 39.5256C83.7278 40.7658 84.153 42.1476 85.4285 42.1476C85.7474 42.1476 86.0132 42.0413 86.0132 42.0413L85.7297 44.6279C85.7297 44.6279 84.9502 44.8228 84.277 44.8228C82.5408 44.8228 81.5309 44.1496 80.5034 41.811C80.0605 40.7658 79.4581 38.941 78.6432 38.941H77.8105V44.752H74.1786V30.0473ZM77.8105 32.6871V36.3012H79.1215C80.1668 36.3012 81.3892 35.9823 81.3892 34.4056C81.3892 33.1123 80.5565 32.6871 79.5644 32.6871H77.8105Z" fill="white"/>
<path d="M69.3772 5.45676L68.8102 2.01978C68.6331 0.921359 68.1901 0.0178223 67.8535 0.0178223C67.5169 0.0178223 67.2335 0.939076 67.2335 2.05521V2.95875C67.2335 4.07488 66.3122 4.99613 65.1961 4.99613H64.2925C64.2217 4.99613 64.1685 4.99613 64.0977 4.99613V7.45872C64.1685 7.45872 64.2217 7.45872 64.2925 7.45872H67.6764C68.7925 7.45872 69.5543 6.55518 69.3772 5.45676Z" fill="white"/>
<path d="M61.2811 2.55116H55.8067C55.7535 2.55116 55.7181 2.55116 55.665 2.55116H50.0311C49.9603 2.55116 49.9071 2.55116 49.8363 2.56888V2.03739C49.8363 0.921253 49.5528 0 49.2162 0C48.8796 0 48.4367 0.903537 48.2595 2.00195L47.6926 5.43894C47.5154 6.53736 48.2772 7.44089 49.3933 7.44089H52.7772C53.1315 7.44089 53.4504 7.38774 53.7339 7.29916C53.6276 7.8838 53.1138 8.309 52.5114 8.309H47.7634C47.0016 8.309 46.417 7.61806 46.541 6.85625L47.0193 3.96848C47.1434 3.20667 46.5587 2.51573 45.7969 2.51573H22.2164C21.7203 2.51573 21.2774 2.81691 21.0825 3.2421L16.6534 10.0452C16.5825 10.1515 16.5825 10.311 16.6711 10.4173L17.5392 11.4271C17.6455 11.5511 17.8404 11.5688 17.9644 11.4625L20.9762 9.08852V23.5451C20.9762 24.2361 21.5254 24.7853 22.2164 24.7853H28.9132C29.6041 24.7853 30.1533 24.2361 30.1533 23.5451V18.5137C30.1533 17.8227 30.7025 17.2735 31.3935 17.2735H48.1178C48.8087 17.2735 49.3579 17.8227 49.3579 18.5137V23.5451C49.3579 24.2361 49.9071 24.7853 50.5981 24.7853H57.2949C57.9858 24.7853 58.535 24.2361 58.535 23.5451V18.1416H54.974C53.8579 18.1416 52.9366 17.2204 52.9366 16.1042V12.6318C52.9366 11.9763 53.2555 11.3739 53.7516 11.0019V15.1475C53.7516 16.2637 54.6728 17.1849 55.789 17.1849H61.2633C62.3795 17.1849 63.3007 16.2637 63.3007 15.1475V4.58855C63.3007 3.47242 62.3972 2.55116 61.2811 2.55116Z" fill="white"/>
<path d="M86.0654 30.7735C86.0654 30.0826 86.5792 29.7814 87.0575 29.7814C87.5359 29.7814 88.0497 30.0826 88.0497 30.7735C88.0497 31.4467 87.5359 31.7479 87.0575 31.7479C86.5792 31.7479 86.0654 31.4467 86.0654 30.7735ZM87.8194 30.7735C87.8194 30.2243 87.465 29.994 87.0753 29.994C86.6855 29.994 86.3135 30.2243 86.3135 30.7735C86.3135 31.305 86.6855 31.553 87.0753 31.553C87.465 31.553 87.8194 31.305 87.8194 30.7735ZM86.7387 30.2774H87.093C87.2701 30.2774 87.4473 30.3306 87.4473 30.5786C87.4473 30.7203 87.341 30.8089 87.217 30.8444L87.4473 31.2518H87.2347L87.0221 30.8621H86.9335V31.2518H86.7387V30.2774ZM87.093 30.7203C87.1816 30.7203 87.2524 30.6672 87.2524 30.5786C87.2524 30.4723 87.1639 30.4546 87.093 30.4546H86.9158V30.7203H87.093Z" fill="white"/>
</svg>
